<svg width="390" height="104" viewBox="0 0 390 104" fill="none" xmlns="http://www.w3.org/2000/svg">
<path d="M104.24 42.936C105.989 42.936 107.696 43.192 109.36 43.704C111.067 44.1733 112.539 44.8987 113.776 45.88C115.056 45.0267 116.485 44.3227 118.064 43.768C119.685 43.2133 121.627 42.936 123.888 42.936C125.509 42.936 127.088 43.1493 128.624 43.576C130.203 44.0027 131.589 44.6853 132.784 45.624C134.021 46.52 135.003 47.736 135.728 49.272C136.453 50.7653 136.816 52.6 136.816 54.776V74.936C136.389 75.064 135.707 75.192 134.768 75.32C133.872 75.448 132.933 75.512 131.952 75.512C131.013 75.512 130.16 75.448 129.392 75.32C128.667 75.192 128.048 74.936 127.536 74.552C127.024 74.168 126.619 73.656 126.32 73.016C126.064 72.3333 125.936 71.4587 125.936 70.392V55.096C125.936 53.816 125.573 52.8987 124.848 52.344C124.123 51.7467 123.141 51.448 121.904 51.448C121.307 51.448 120.667 51.5973 119.984 51.896C119.301 52.152 118.789 52.4293 118.448 52.728C118.491 52.8987 118.512 53.0693 118.512 53.24C118.512 53.368 118.512 53.496 118.512 53.624V74.936C118.043 75.064 117.339 75.192 116.4 75.32C115.504 75.448 114.587 75.512 113.648 75.512C112.709 75.512 111.856 75.448 111.088 75.32C110.363 75.192 109.744 74.936 109.232 74.552C108.72 74.168 108.315 73.656 108.016 73.016C107.76 72.3333 107.632 71.4587 107.632 70.392V55.096C107.632 53.816 107.227 52.8987 106.416 52.344C105.648 51.7467 104.709 51.448 103.6 51.448C102.832 51.448 102.171 51.576 101.616 51.832C101.061 52.0453 100.592 52.2587 100.208 52.472V74.936C99.7813 75.064 99.0987 75.192 98.16 75.32C97.264 75.448 96.3253 75.512 95.344 75.512C94.4053 75.512 93.552 75.448 92.784 75.32C92.0587 75.192 91.44 74.936 90.928 74.552C90.416 74.168 90.0107 73.656 89.712 73.016C89.456 72.3333 89.328 71.4587 89.328 70.392V51.064C89.328 49.912 89.5627 48.9947 90.032 48.312C90.544 47.6293 91.2267 46.9893 92.08 46.392C93.5307 45.368 95.3227 44.536 97.456 43.896C99.632 43.256 101.893 42.936 104.24 42.936ZM143.54 67.064C143.07 65.9973 142.558 64.8027 142.003 63.48C141.492 62.1573 140.937 60.6427 140.339 58.936C139.785 57.2293 139.188 55.288 138.547 53.112C137.95 50.8933 137.31 48.3547 136.627 45.496C137.225 44.8987 138.014 44.3867 138.996 43.96C140.019 43.4907 141.129 43.256 142.324 43.256C143.817 43.256 145.054 43.576 146.036 44.216C147.017 44.8133 147.742 45.9653 148.212 47.672L153.267 65.272H153.524C154.036 63.8213 154.526 62.2427 154.996 60.536C155.508 58.8293 155.998 57.08 156.468 55.288C156.937 53.4533 157.364 51.64 157.748 49.848C158.174 48.0133 158.537 46.2213 158.836 44.472C160.372 43.6613 162.057 43.256 163.892 43.256C165.385 43.256 166.622 43.576 167.604 44.216C168.585 44.856 169.076 45.9653 169.076 47.544C169.076 48.696 168.926 50.04 168.628 51.576C168.329 53.0693 167.924 54.6693 167.412 56.376C166.942 58.0827 166.366 59.8533 165.684 61.688C165.044 63.48 164.361 65.2507 163.636 67C162.91 68.7493 162.164 70.4133 161.396 71.992C160.628 73.528 159.881 74.9147 159.156 76.152C157.961 78.2427 156.852 79.9493 155.828 81.272C154.804 82.5947 153.822 83.6187 152.884 84.344C151.945 85.112 151.006 85.624 150.068 85.88C149.129 86.1787 148.148 86.328 147.124 86.328C145.332 86.328 143.881 85.7947 142.772 84.728C141.662 83.6613 141.001 82.2747 140.787 80.568C142.153 79.5013 143.518 78.3067 144.884 76.984C146.249 75.704 147.486 74.3813 148.596 73.016C147.87 72.8027 147.081 72.312 146.227 71.544C145.417 70.7333 144.521 69.24 143.54 67.064ZM194.15 73.72C193.552 74.232 192.614 74.68 191.333 75.064C190.096 75.448 188.731 75.64 187.238 75.64C185.446 75.64 183.91 75.384 182.63 74.872C181.35 74.3173 180.475 73.5707 180.006 72.632C179.536 71.6507 178.96 70.392 178.278 68.856C177.595 67.2773 176.87 65.528 176.102 63.608C175.376 61.688 174.608 59.6613 173.798 57.528C173.03 55.352 172.283 53.1547 171.557 50.936C170.832 48.7173 170.149 46.5413 169.509 44.408C168.869 42.2747 168.315 40.2693 167.845 38.392C168.443 37.7947 169.296 37.2613 170.405 36.792C171.558 36.28 172.774 36.024 174.054 36.024C175.632 36.024 176.912 36.3653 177.894 37.048C178.918 37.688 179.664 38.904 180.134 40.696C181.286 44.8773 182.438 48.888 183.59 52.728C184.784 56.5253 186.022 60.4933 187.302 64.632H187.686C188.838 60.6213 190.011 56.248 191.206 51.512C192.443 46.776 193.616 42.0613 194.726 37.368C195.494 36.984 196.304 36.664 197.158 36.408C198.054 36.152 199.056 36.024 200.166 36.024C201.744 36.024 203.088 36.3867 204.198 37.112C205.307 37.7947 205.861 38.9467 205.861 40.568C205.861 41.5067 205.627 42.872 205.158 44.664C204.731 46.456 204.155 48.4827 203.43 50.744C202.747 52.9627 201.958 55.288 201.062 57.72C200.208 60.152 199.334 62.456 198.438 64.632C197.584 66.7653 196.774 68.664 196.006 70.328C195.238 71.9493 194.619 73.08 194.15 73.72ZM236.875 59.448C236.875 62.0933 236.47 64.4613 235.659 66.552C234.848 68.6 233.696 70.328 232.203 71.736C230.752 73.144 229.003 74.2107 226.955 74.936C224.907 75.6613 222.624 76.024 220.107 76.024C217.59 76.024 215.307 75.64 213.259 74.872C211.211 74.104 209.44 73.016 207.947 71.608C206.496 70.1573 205.366 68.408 204.555 66.36C203.744 64.312 203.339 62.008 203.339 59.448C203.339 56.9307 203.744 54.648 204.555 52.6C205.366 50.552 206.496 48.824 207.947 47.416C209.44 45.9653 211.211 44.856 213.259 44.088C215.307 43.32 217.59 42.936 220.107 42.936C222.624 42.936 224.907 43.3413 226.955 44.152C229.003 44.92 230.752 46.0293 232.203 47.48C233.696 48.888 234.848 50.616 235.659 52.664C236.47 54.712 236.875 56.9733 236.875 59.448ZM214.475 59.448C214.475 62.0507 214.966 64.056 215.947 65.464C216.971 66.8293 218.379 67.512 220.171 67.512C221.963 67.512 223.328 66.808 224.267 65.4C225.248 63.992 225.739 62.008 225.739 59.448C225.739 56.888 225.248 54.9253 224.267 53.56C223.286 52.152 221.899 51.448 220.107 51.448C218.315 51.448 216.928 52.152 215.947 53.56C214.966 54.9253 214.475 56.888 214.475 59.448ZM255.879 51.512C254.812 51.512 253.788 51.6827 252.807 52.024C251.868 52.3653 251.036 52.8773 250.311 53.56C249.628 54.2 249.074 55.0107 248.647 55.992C248.22 56.9733 248.007 58.1253 248.007 59.448C248.007 62.0933 248.754 64.0773 250.247 65.4C251.783 66.7227 253.639 67.384 255.815 67.384C257.095 67.384 258.204 67.2347 259.143 66.936C260.082 66.6373 260.914 66.3173 261.639 65.976C262.492 66.5733 263.132 67.2347 263.559 67.96C263.986 68.6427 264.199 69.4747 264.199 70.456C264.199 72.2053 263.367 73.5707 261.703 74.552C260.039 75.4907 257.735 75.96 254.791 75.96C252.103 75.96 249.671 75.576 247.495 74.808C245.319 73.9973 243.442 72.888 241.863 71.48C240.327 70.0293 239.132 68.3013 238.279 66.296C237.426 64.2907 236.999 62.072 236.999 59.64C236.999 56.824 237.447 54.3707 238.343 52.28C239.282 50.1467 240.54 48.3973 242.119 47.032C243.698 45.6667 245.511 44.6427 247.559 43.96C249.65 43.2773 251.847 42.936 254.151 42.936C257.223 42.936 259.591 43.4907 261.255 44.6C262.919 45.7093 263.751 47.1387 263.751 48.888C263.751 49.6987 263.559 50.4667 263.175 51.192C262.791 51.8747 262.343 52.472 261.831 52.984C261.106 52.6427 260.231 52.3227 259.207 52.024C258.183 51.6827 257.074 51.512 255.879 51.512ZM279.128 68.088C279.853 68.088 280.642 68.024 281.496 67.896C282.392 67.7253 283.053 67.512 283.48 67.256V62.136L278.872 62.52C277.677 62.6053 276.696 62.8613 275.928 63.288C275.16 63.7147 274.776 64.3547 274.776 65.208C274.776 66.0613 275.096 66.7653 275.736 67.32C276.418 67.832 277.549 68.088 279.128 68.088ZM278.616 42.936C280.92 42.936 283.01 43.1707 284.888 43.64C286.808 44.1093 288.429 44.8347 289.752 45.816C291.117 46.7547 292.162 47.9707 292.888 49.464C293.613 50.9147 293.976 52.6427 293.976 54.648V68.984C293.976 70.0933 293.656 71.0107 293.016 71.736C292.418 72.4187 291.693 73.016 290.84 73.528C288.066 75.192 284.162 76.024 279.128 76.024C276.866 76.024 274.818 75.8107 272.984 75.384C271.192 74.9573 269.634 74.3173 268.312 73.464C267.032 72.6107 266.029 71.5227 265.304 70.2C264.621 68.8773 264.28 67.3413 264.28 65.592C264.28 62.648 265.154 60.3867 266.904 58.808C268.653 57.2293 271.362 56.248 275.032 55.864L283.416 54.968V54.52C283.416 53.2827 282.861 52.408 281.752 51.896C280.685 51.3413 279.128 51.064 277.08 51.064C275.458 51.064 273.88 51.2347 272.344 51.576C270.808 51.9173 269.421 52.344 268.184 52.856C267.629 52.472 267.16 51.896 266.776 51.128C266.392 50.3173 266.2 49.4853 266.2 48.632C266.2 47.5227 266.456 46.648 266.968 46.008C267.522 45.3253 268.354 44.7493 269.464 44.28C270.701 43.8107 272.152 43.4693 273.816 43.256C275.522 43.0427 277.122 42.936 278.616 42.936ZM296.916 33.336C297.343 33.208 298.025 33.08 298.964 32.952C299.903 32.7813 300.863 32.696 301.844 32.696C302.783 32.696 303.615 32.76 304.34 32.888C305.108 33.016 305.748 33.272 306.26 33.656C306.772 34.04 307.156 34.5733 307.412 35.256C307.668 35.896 307.796 36.7493 307.796 37.816V44.088C308.863 43.6613 309.865 43.3627 310.804 43.192C311.785 43.0213 312.852 42.936 314.004 42.936C316.052 42.936 317.993 43.2987 319.828 44.024C321.663 44.7493 323.284 45.816 324.692 47.224C326.1 48.5893 327.209 50.296 328.02 52.344C328.831 54.392 329.236 56.76 329.236 59.448C329.236 62.2213 328.809 64.6533 327.956 66.744C327.145 68.792 325.993 70.4987 324.5 71.864C323.007 73.2293 321.172 74.2747 318.996 75C316.863 75.6827 314.495 76.024 311.892 76.024C309.076 76.024 306.687 75.6827 304.724 75C302.761 74.36 301.097 73.5493 299.732 72.568C297.855 71.2453 296.916 69.5387 296.916 67.448V33.336ZM311.892 67.448C313.855 67.448 315.369 66.7867 316.436 65.464C317.545 64.0987 318.1 62.0933 318.1 59.448C318.1 56.76 317.545 54.7547 316.436 53.432C315.327 52.1093 313.833 51.448 311.956 51.448C311.103 51.448 310.356 51.5333 309.716 51.704C309.119 51.8747 308.457 52.1307 307.732 52.472V66.424C308.201 66.7227 308.756 66.9787 309.396 67.192C310.079 67.3627 310.911 67.448 311.892 67.448ZM356.938 65.72C356.938 68.9627 355.722 71.5013 353.29 73.336C350.858 75.1707 347.274 76.088 342.538 76.088C340.746 76.088 339.082 75.96 337.546 75.704C336.01 75.448 334.687 75.064 333.578 74.552C332.511 73.9973 331.658 73.3147 331.018 72.504C330.421 71.6933 330.122 70.7333 330.122 69.624C330.122 68.6 330.335 67.7467 330.762 67.064C331.189 66.3387 331.701 65.7413 332.298 65.272C333.535 65.9547 334.943 66.5733 336.522 67.128C338.143 67.64 339.999 67.896 342.09 67.896C343.413 67.896 344.415 67.704 345.098 67.32C345.823 66.936 346.186 66.424 346.186 65.784C346.186 65.1867 345.93 64.7173 345.418 64.376C344.906 64.0347 344.053 63.7573 342.858 63.544L340.938 63.16C337.226 62.4347 334.453 61.304 332.618 59.768C330.826 58.1893 329.93 55.9493 329.93 53.048C329.93 51.4693 330.271 50.04 330.954 48.76C331.637 47.48 332.597 46.4133 333.834 45.56C335.071 44.7067 336.543 44.0453 338.25 43.576C339.999 43.1067 341.919 42.872 344.01 42.872C345.589 42.872 347.061 43 348.426 43.256C349.834 43.4693 351.05 43.8107 352.074 44.28C353.098 44.7493 353.909 45.368 354.506 46.136C355.103 46.8613 355.402 47.736 355.402 48.76C355.402 49.7413 355.21 50.5947 354.826 51.32C354.485 52.0027 354.037 52.5787 353.482 53.048C353.141 52.8347 352.629 52.6213 351.946 52.408C351.263 52.152 350.517 51.9387 349.706 51.768C348.895 51.5547 348.063 51.384 347.21 51.256C346.399 51.128 345.653 51.064 344.97 51.064C343.562 51.064 342.474 51.2347 341.706 51.576C340.938 51.8747 340.554 52.3653 340.554 53.048C340.554 53.5173 340.767 53.9013 341.194 54.2C341.621 54.4987 342.431 54.776 343.626 55.032L345.61 55.48C349.706 56.4187 352.607 57.72 354.314 59.384C356.063 61.0053 356.938 63.1173 356.938 65.72Z" fill="black"/>
<path d="M365.411 69.816C365.411 68.024 365.965 66.5307 367.075 65.336C368.184 64.1413 369.699 63.544 371.619 63.544C373.539 63.544 375.053 64.1413 376.163 65.336C377.272 66.5307 377.827 68.024 377.827 69.816C377.827 71.608 377.272 73.1013 376.163 74.296C375.053 75.4907 373.539 76.088 371.619 76.088C369.699 76.088 368.184 75.4907 367.075 74.296C365.965 73.1013 365.411 71.608 365.411 69.816Z" fill="#1495FF"/>
<path d="M72 30.5561V94.6844C72 102.87 66.6514 106.313 60.12 102.362L39.9086 89.999C37.7486 88.7006 34.2514 88.7006 32.0914 89.999L11.88 102.362C5.34857 106.313 0 102.87 0 94.6844V30.5561C0 20.9031 7.19995 13 15.9942 13H56.0057C64.8 13 72 20.9031 72 30.5561Z" fill="#1495FF"/>
</svg>
